<svg version="1" xmlns="http://www.w3.org/2000/svg" width="346.667" height="346.667" viewBox="0 0 260.000000 260.000000"><path d="M88.7 39.9c-12 19.4-21.7 35.6-21.5 36 .2.4 9.1 9 19.8 19.1 10.7 10.2 19.6 18.8 19.8 19.2.2.4-8.7 10.3-19.7 22L67 157.5v58L96.7 235c16.3 10.7 30.4 19.4 31.3 19.4.9 0 15.2-8.7 31.8-19.4l30.1-19.5.1-20.8v-20.8l-11-13.4-10.9-13.4-.3-11-.3-11.1-12.7 16.3-12.8 16.2v17.9l6.6 6.7 6.6 6.7-6.7 7.1c-9.2 9.7-10.7 9.7-22.1-.2l-8.4-7.2V158.2l20.6-24.7c11.3-13.5 20.4-25.1 20.2-25.6-.2-.5-10.9-9.9-23.8-20.7l-23.5-19.8L111 36l-.5-31.3-21.8 35.2z"/><path d="M133.2 54.4l-10.3 13.7 3.2 2.7c1.8 1.5 6.4 5.3 10.3 8.5l7.1 5.8.3-11.1c.1-6 .1-16 0-22.2l-.3-11.1-10.3 13.7zM67 114.5c0 20.3.1 21.5 1.8 20.6.9-.6 6.4-5.5 12.1-10.9l10.4-9.8-4.9-4.5c-2.7-2.5-7.9-7.3-11.6-10.7-3.7-3.4-7-6.2-7.3-6.2-.3 0-.5 9.7-.5 21.5zM174.6 147.2c1 1.7 17.6 20.8 18.1 20.8.1 0 .3-5 .3-11v-11h-9.6c-7.3 0-9.3.3-8.8 1.2z"/></svg>