<?xml version="1.0" encoding="UTF-8"?>
<svg width="344.59" height="386.91" clip-rule="evenodd" fill-rule="evenodd" stroke-linejoin="round" stroke-miterlimit="1.414" aria-label="Logo" version="1.1" viewBox="0 0 344.59 386.91" xmlns="http://www.w3.org/2000/svg" xmlns:cc="http://creativecommons.org/ns#" xmlns:dc="http://purl.org/dc/elements/1.1/" xmlns:rdf="http://www.w3.org/1999/02/22-rdf-syntax-ns#">
 <metadata>
  <rdf:RDF>
   <cc:Work rdf:about="">
    <dc:format>image/svg+xml</dc:format>
    <dc:type rdf:resource="http://purl.org/dc/dcmitype/StillImage"/>
    <dc:title/>
   </cc:Work>
  </rdf:RDF>
 </metadata>
 <path d="m331.3 248.18v-122.25c0-15.898-8.42-30.606-22.126-38.66-29.417-17.283-81.387-47.818-113.22-66.52-16.81-9.872-37.69-9.65-54.28 0.58-28.17 17.37-72.12 44.47-100.49 61.967-17.11 10.55-27.53 29.21-27.53 49.31v125.17c0 19.938 10.58 38.376 27.79 48.437l104.72 61.212c13.92 8.14 31.11 8.317 45.2 0.47 30.58-17.036 84.74-47.196 115.94-64.575 14.8-8.25 23.97-23.86 23.97-40.8v-14.34z" fill="#ff4088"/>
 <path d="m169.44 0h0.277l0.247 3e-3h1.414l0.247 0.01h0.03l0.247 0.01h0.027l0.25 0.01h0.02l0.25 0.01h0.03l0.24 0.01h0.03l0.24 0.01h0.02l0.25 0.01h0.03l0.25 0.02h0.03l0.24 0.02h0.02l0.24 0.02h0.03l0.25 0.02h0.02l0.24 0.02h0.03l0.25 0.02h0.03l0.25 0.02h0.03l0.25 0.02h0.03l0.24 0.02h0.03l0.24 0.02h0.03l0.25 0.02h0.03l0.25 0.03h0.03l0.25 0.03h0.02l0.24 0.03h0.03l0.24 0.03h0.03l0.25 0.03h0.03l0.25 0.03h0.02l0.24 0.03h0.03l0.25 0.03h0.03l0.24 0.04 0.03 0.01 0.25 0.04h0.03l0.24 0.04h0.02l0.25 0.04h0.03l0.24 0.04h0.03l0.24 0.04h0.02l0.25 0.04h0.03l0.24 0.04 0.03 0.01 0.24 0.04 0.03 0.01 0.24 0.05h0.03l0.24 0.04h0.03l0.24 0.05h0.03l0.25 0.05h0.02l0.24 0.05h0.03l0.24 0.05h0.02l0.25 0.05 0.03 0.01 0.25 0.05h0.02l0.24 0.06 0.03 0.01 0.24 0.06h0.03l0.25 0.06 0.02 0.01 0.24 0.05 0.03 0.01 0.24 0.05 0.02 0.01 0.24 0.06h0.03l0.24 0.06 0.03 0.01 0.24 0.06 0.02 0.01 0.25 0.06 0.02 0.01 0.24 0.06 0.03 0.01 0.24 0.06h0.02l0.24 0.07h0.03l0.25 0.06 0.03 0.01 0.24 0.06h0.03l0.24 0.07 0.03 0.01 0.24 0.07 0.03 0.01 0.24 0.07 0.03 0.01 0.24 0.07 0.02 0.01 0.24 0.07 0.03 0.01 0.24 0.07 0.03 0.01 0.24 0.07 0.27 0.09 0.02 0.01 0.24 0.08h0.03l0.24 0.08h0.03l0.78 0.26 0.02 0.01 0.51 0.17 0.02 0.01 0.24 0.08 0.02 0.01 0.23 0.08 0.03 0.01 0.23 0.08 0.03 0.01 0.23 0.09 0.03 0.01 0.24 0.09 0.03 0.01 0.23 0.09 0.02 0.01 0.24 0.08 0.02 0.01 0.24 0.09 0.03 0.01 0.24 0.09 0.03 0.01 0.23 0.09 0.03 0.01 0.23 0.1 0.02 0.01 0.24 0.09 0.03 0.01 0.23 0.1 0.03 0.01 0.24 0.1 0.03 0.01 0.24 0.1 0.02 0.01 0.24 0.1 0.02 0.01 0.23 0.1 0.02 0.01 0.23 0.1 0.02 0.01 0.24 0.1 0.02 0.01 0.23 0.1 0.03 0.01 0.23 0.1 0.03 0.01 0.23 0.1 0.02 0.01 0.23 0.11 0.03 0.01 0.23 0.11 0.03 0.01 0.23 0.11 0.02 0.01 0.23 0.11 0.02 0.01 0.23 0.11 0.03 0.01 0.23 0.11 0.03 0.01 0.23 0.11 0.03 0.01 0.23 0.11 0.02 0.01 0.23 0.12 0.02 0.02 0.23 0.11 0.02 0.01 0.22 0.12 0.03 0.01 0.23 0.11 0.02 0.01 0.23 0.12 0.03 0.01 0.22 0.12 0.03 0.02 0.23 0.12 0.03 0.01 0.23 0.12 0.02 0.01 0.22 0.12 0.03 0.02 0.23 0.12 0.02 0.02 0.22 0.13 0.02 0.02 0.22 0.13 0.03 0.01 0.22 0.13 0.02 0.01 0.22 0.13 0.02 0.02 0.22 0.13 0.03 0.02 0.21 0.13h0.02l113.3 66.57 0.19 0.11 0.02 0.02 0.19 0.11 0.03 0.01 0.18 0.12 0.02 0.02 0.18 0.11 0.02 0.02 0.18 0.11 0.02 0.01 0.18 0.11 0.02 0.01 0.18 0.11 0.02 0.01 0.18 0.11 0.03 0.01 0.18 0.12 0.02 0.01 0.18 0.12 0.03 0.01 0.18 0.11 0.02 0.01 0.18 0.12 0.02 0.02 0.18 0.12 0.02 0.02 0.17 0.11 0.03 0.01 0.18 0.12 0.02 0.01 0.18 0.12 0.02 0.01 0.17 0.12 0.02 0.01 0.17 0.12 0.02 0.01 0.17 0.12 0.02 0.02 0.17 0.12 0.02 0.01 0.17 0.13 0.03 0.02 0.17 0.12 0.02 0.01 0.17 0.12 0.02 0.01 0.17 0.12 0.02 0.02 0.17 0.12 0.02 0.01 0.17 0.12 0.02 0.02 0.17 0.12 0.02 0.02 0.17 0.13 0.03 0.02 0.16 0.13 0.03 0.02 0.17 0.13 0.03 0.01 0.17 0.13 0.02 0.02 0.17 0.13 0.02 0.02 0.16 0.13 0.03 0.02 0.17 0.14 0.03 0.03 0.32 0.26 0.04 0.03 0.32 0.27 0.04 0.03 0.33 0.27 0.04 0.03 0.33 0.27 0.04 0.03 0.32 0.27 0.04 0.04 0.32 0.27 0.04 0.03 0.31 0.28 0.04 0.03 0.31 0.28 0.04 0.03 0.31 0.29 0.04 0.03 0.3 0.28 0.04 0.03 0.31 0.29 0.04 0.04 0.3 0.29 0.04 0.04 0.3 0.29 0.37 0.37 0.29 0.3 0.04 0.04 0.29 0.3 0.03 0.04 0.29 0.3 0.04 0.04 0.28 0.3 0.04 0.04 0.28 0.3 0.04 0.04 0.28 0.3 0.04 0.04 0.28 0.31 0.04 0.04 0.27 0.32 0.03 0.04 0.28 0.31 0.04 0.04 0.27 0.32 0.04 0.04 0.27 0.32 0.03 0.04 0.27 0.32 0.04 0.04 0.26 0.32 0.03 0.04 0.26 0.32 0.04 0.04 0.26 0.33 0.03 0.04 0.25 0.33 0.03 0.04 0.25 0.33 0.03 0.04 0.25 0.33 0.03 0.05 0.25 0.34 0.03 0.04 0.25 0.33 0.03 0.05 0.24 0.34 0.03 0.04 0.24 0.34 0.03 0.04 0.24 0.34 0.03 0.05 0.23 0.34 0.03 0.05 0.23 0.35 0.03 0.05 0.22 0.34 0.03 0.04 0.22 0.34 0.03 0.04 0.23 0.35 0.03 0.04 0.22 0.35 0.27 0.45 0.22 0.35 0.27 0.45 0.21 0.36 0.03 0.04 0.2 0.36 0.03 0.05 0.2 0.36 0.03 0.05 0.2 0.36 0.03 0.05 0.2 0.36 0.02 0.05 0.2 0.37 0.02 0.05 0.19 0.37 0.02 0.05 0.19 0.37 0.03 0.04 0.18 0.38 0.02 0.05 0.19 0.37 0.02 0.05 0.18 0.37 0.03 0.05 0.17 0.38 0.02 0.05 0.17 0.38 0.02 0.05 0.17 0.38 0.02 0.05 0.17 0.38 0.02 0.05 0.16 0.38 0.02 0.05 0.16 0.38 0.02 0.05 0.15 0.39 0.02 0.05 0.15 0.38 0.02 0.05 0.15 0.39 0.02 0.05 0.15 0.39 0.02 0.05 0.15 0.39 0.02 0.05 0.14 0.39 0.02 0.05 0.13 0.39 0.02 0.05 0.13 0.39 0.02 0.05 0.13 0.39 0.02 0.05 0.13 0.4 0.01 0.05 0.12 0.39 0.02 0.05 0.12 0.4 0.01 0.05 0.12 0.4 0.02 0.05 0.12 0.4 0.02 0.05 0.11 0.4 0.02 0.05 0.11 0.4 0.01 0.05 0.1 0.4 0.02 0.06 0.11 0.41 0.01 0.05 0.1 0.41 0.02 0.05 0.09 0.41 0.02 0.05 0.1 0.41 0.01 0.06 0.09 0.41 0.01 0.05 0.09 0.41 0.01 0.05 0.08 0.41 0.01 0.05 0.08 0.41 0.01 0.05 0.08 0.41 0.01 0.05 0.07 0.42 0.01 0.05 0.07 0.41 0.09 0.54 0.06 0.42 0.01 0.06 0.06 0.41v0.04l0.03 0.22v0.02l0.02 0.21v0.03l0.03 0.21v0.02l0.03 0.21v0.03l0.03 0.21 0.01 0.03 0.03 0.21v0.03l0.02 0.21 0.01 0.02 0.02 0.21 0.01 0.03 0.02 0.21v0.03l0.02 0.21 0.01 0.03 0.02 0.21 0.01 0.03 0.02 0.21v0.03l0.02 0.21v0.03l0.02 0.21v0.03l0.02 0.21v0.03l0.02 0.21v0.03l0.01 0.21v0.03l0.01 0.22v0.03l0.02 0.22v0.02l0.01 0.21v0.03l0.01 0.21v0.03l0.01 0.21v0.03l0.01 0.21v0.03l0.01 0.22v0.03l0.01 0.21v0.03l0.01 0.21v0.02l0.01 0.21v139.6l-0.01 0.23v0.29l-0.01 0.23v0.03l-0.01 0.22v0.02l-0.01 0.23v0.03l-0.01 0.22v0.02l-0.01 0.22v0.03l-0.01 0.22-0.01 0.03-0.01 0.22v0.03l-0.01 0.22v0.02l-0.01 0.23v0.03l-0.02 0.23v0.02l-0.02 0.23v0.03l-0.02 0.22v0.03l-0.01 0.22v0.03l-0.02 0.22v0.03l-0.02 0.22v0.03l-0.02 0.22v0.03l-0.02 0.22-0.01 0.02-0.02 0.23-0.01 0.03-0.02 0.22v0.03l-0.02 0.22-0.01 0.03-0.03 0.22v0.03l-0.03 0.22v0.02l-0.03 0.22v0.03l-0.03 0.22-0.01 0.03-0.03 0.23-0.01 0.03-0.03 0.22-0.01 0.03-0.03 0.22v0.03l-0.03 0.22v0.03l-0.03 0.22-0.01 0.03-0.03 0.22-0.01 0.03-0.04 0.22v0.02l-0.03 0.22v0.02l-0.04 0.22-0.01 0.03-0.03 0.22-0.01 0.03-0.03 0.22v0.02l-0.04 0.22v0.02l-0.04 0.22v0.02l-0.04 0.22v0.03l-0.04 0.21-0.01 0.03-0.04 0.21-0.01 0.03-0.04 0.22-0.01 0.03-0.05 0.22v0.02l-0.05 0.22v0.02l-0.04 0.21v0.03l-0.05 0.22v0.02l-0.04 0.22-0.01 0.02-0.05 0.21v0.02l-0.05 0.21v0.03l-0.05 0.21-0.01 0.03-0.05 0.21-0.01 0.03-0.05 0.21-0.01 0.02-0.05 0.21-0.01 0.02-0.05 0.21-0.01 0.03-0.06 0.21-0.01 0.03-0.05 0.21-0.01 0.03-0.06 0.21v0.03l-0.06 0.22-0.01 0.03-0.06 0.21v0.03l-0.06 0.21-0.01 0.03-0.06 0.21-0.01 0.03-0.06 0.22-0.01 0.02-0.06 0.21-0.01 0.02-0.06 0.21-0.09 0.27-0.06 0.21-0.01 0.02-0.06 0.21-0.01 0.03-0.06 0.21-0.01 0.02-0.39 1.17-0.01 0.02-0.23 0.69-0.01 0.02-0.16 0.48-0.08 0.2-0.01 0.03-0.07 0.2-0.01 0.03-0.07 0.2-0.09 0.27-0.08 0.21-0.01 0.03-0.08 0.2-0.01 0.03-0.08 0.2-0.01 0.03-0.08 0.2-0.01 0.03-0.08 0.2-0.01 0.03-0.08 0.2-0.01 0.03-0.08 0.2-0.01 0.02-0.09 0.2-0.01 0.03-0.09 0.21-0.01 0.03-0.08 0.2-0.01 0.03-0.09 0.2-0.01 0.03-0.09 0.2-0.01 0.03-0.09 0.2-0.01 0.02-0.09 0.2-0.01 0.03-0.09 0.2-0.01 0.02-0.09 0.2-0.01 0.02-0.09 0.2-0.01 0.02-0.09 0.2-0.12 0.24-0.1 0.19-0.01 0.03-0.09 0.2-0.01 0.02-0.1 0.19-0.01 0.03-0.09 0.2-0.11 0.22-0.01 0.03-0.11 0.22-0.1 0.19-0.11 0.22-0.01 0.03-0.1 0.2-0.01 0.03-0.1 0.2-0.02 0.03-0.1 0.19-0.11 0.22-0.01 0.03-0.1 0.2-0.01 0.03-0.11 0.19-0.02 0.02-0.11 0.19-0.01 0.02-0.11 0.19-0.01 0.02-0.11 0.19-0.01 0.02-0.11 0.19-0.01 0.02-0.11 0.19-0.01 0.03-0.11 0.19-0.01 0.02-0.11 0.19-0.01 0.03-0.11 0.19-0.02 0.02-0.11 0.19-0.02 0.02-0.11 0.19-0.01 0.02-0.11 0.19-0.01 0.03-0.12 0.19-0.01 0.02-0.11 0.18-0.01 0.03-0.11 0.18-0.02 0.02-0.12 0.19-0.01 0.03-0.12 0.18-0.02 0.02-0.12 0.18-0.01 0.02-0.12 0.19-0.14 0.21-0.02 0.02-0.12 0.18-0.01 0.02-0.12 0.19-0.01 0.02-0.12 0.18-0.02 0.02-0.13 0.18-0.01 0.02-0.12 0.18-0.01 0.02-0.13 0.18-0.01 0.02-0.12 0.18-0.02 0.02-0.12 0.18-0.02 0.02-0.13 0.18-0.02 0.02-0.12 0.18-0.01 0.02-0.13 0.18-0.14 0.21-0.02 0.02-0.13 0.18-0.02 0.02-0.13 0.18-0.02 0.02-0.13 0.18-0.02 0.02-0.13 0.18-0.01 0.02-0.13 0.17-0.02 0.02-0.13 0.17-0.01 0.02-0.14 0.17-0.02 0.02-0.13 0.17-0.01 0.02-0.13 0.18-0.02 0.02-0.14 0.18-0.02 0.02-0.14 0.17-0.02 0.02-0.14 0.17-0.01 0.02-0.14 0.17-0.02 0.02-0.14 0.17-0.02 0.02-0.14 0.17-0.02 0.02-0.14 0.17-0.02 0.02-0.14 0.17-0.01 0.02-0.14 0.17-0.02 0.02-0.15 0.17-0.02 0.02-0.14 0.17-0.02 0.02-0.14 0.17-0.02 0.02-0.14 0.17-0.02 0.02-0.14 0.17-0.02 0.02-0.14 0.16-0.02 0.02-0.15 0.17-0.02 0.02-0.14 0.17-0.02 0.02-0.15 0.17-0.02 0.02-0.14 0.17-0.02 0.02-0.15 0.16-0.02 0.02-0.15 0.16-0.02 0.02-0.15 0.16-0.02 0.02-0.15 0.16-0.02 0.02-0.15 0.16-0.02 0.02-0.15 0.16-0.02 0.02-0.15 0.16-0.02 0.02-0.15 0.16-0.2 0.2-0.15 0.16-0.35 0.35-0.03 0.02-0.18 0.18-0.16 0.15-0.2 0.2-0.16 0.15-0.02 0.02-0.16 0.15-0.02 0.02-0.16 0.15-0.02 0.02-0.16 0.15-0.02 0.02-0.16 0.15-0.02 0.02-0.16 0.15-0.02 0.02-0.17 0.15-0.02 0.01-0.16 0.15-0.02 0.02-0.17 0.15-0.02 0.02-0.17 0.15-0.02 0.01-0.17 0.15-0.02 0.02-0.17 0.14-0.03 0.02-0.17 0.14-0.02 0.02-0.17 0.15-0.02 0.02-0.17 0.15-0.02 0.02-0.17 0.15-0.02 0.02-0.17 0.14-0.02 0.02-0.18 0.14-0.02 0.01-0.17 0.14-0.02 0.02-0.17 0.14-0.03 0.02-0.17 0.14-0.02 0.02-0.17 0.14-0.02 0.02-0.17 0.14-0.02 0.02-0.18 0.14-0.02 0.02-0.17 0.13-0.02 0.02-0.18 0.14-0.02 0.02-0.18 0.14-0.02 0.02-0.18 0.14-0.02 0.02-0.18 0.14-0.02 0.01-0.18 0.13-0.02 0.01-0.18 0.13-0.02 0.01-0.18 0.13-0.03 0.01-0.18 0.13-0.02 0.02-0.18 0.13-0.02 0.02-0.18 0.13-0.02 0.02-0.18 0.13-0.03 0.02-0.18 0.13-0.02 0.01-0.19 0.13-0.03 0.01-0.19 0.13-0.02 0.02-0.19 0.13-0.02 0.02-0.19 0.12-0.02 0.02-0.19 0.13-0.02 0.02-0.18 0.13-0.03 0.02-0.19 0.12-0.02 0.01-0.19 0.12-0.03 0.01-0.19 0.12-0.02 0.02-0.19 0.12-0.02 0.02-0.19 0.12-0.02 0.01-0.19 0.12-0.03 0.01-0.19 0.12-0.02 0.02-0.19 0.12-0.03 0.01-0.19 0.12-0.03 0.02-0.19 0.12-0.03 0.02-0.2 0.12-0.02 0.02-0.19 0.11-0.03 0.01-0.19 0.11-0.02 0.02-0.2 0.12-0.03 0.02-0.2 0.11-0.02 0.02-0.19 0.11-0.03 0.01-0.2 0.11-0.03 0.01-0.2 0.11-0.02 0.01-0.19 0.11-0.01 0.01-115.93 64.6h-0.01l-0.18 0.11-0.03 0.01-0.19 0.11-0.03 0.02-0.19 0.1-0.03 0.01-0.19 0.1-0.02 0.01-0.19 0.1-0.03 0.01-0.19 0.1-0.03 0.01-0.19 0.1-0.03 0.01-0.19 0.1-0.02 0.01-0.19 0.1-0.02 0.01-0.19 0.09-0.22 0.11-0.02 0.02-0.19 0.1-0.02 0.01-0.19 0.09-0.02 0.01-0.19 0.09-0.02 0.01-0.19 0.1-0.02 0.01-0.2 0.09-0.02 0.01-0.19 0.09-0.02 0.01-0.2 0.09-0.02 0.01-0.19 0.09-0.02 0.01-0.19 0.09-0.03 0.02-0.2 0.09-0.02 0.01-0.2 0.08-0.02 0.01-0.2 0.09-0.02 0.02-0.2 0.09-0.03 0.01-0.19 0.08-0.02 0.01-0.2 0.09-0.02 0.01-0.2 0.08-0.02 0.01-0.2 0.08-0.02 0.01-0.2 0.08-0.03 0.01-0.2 0.08-0.03 0.01-0.2 0.08-0.03 0.01-0.19 0.08-0.02 0.01-0.2 0.07-0.02 0.01-0.2 0.08-0.03 0.01-0.2 0.08-0.03 0.01-0.2 0.08-0.03 0.01-0.2 0.07-0.03 0.01-0.2 0.08-0.03 0.01-0.2 0.07-0.02 0.01-0.2 0.07-0.03 0.01-0.2 0.07-0.03 0.01-0.2 0.07-0.03 0.01-0.2 0.07-0.02 0.01-0.4 0.14-0.03 0.01-0.21 0.06-0.03 0.01-0.2 0.06-0.02 0.01-0.2 0.07-0.02 0.01-0.21 0.06-0.03 0.01-0.2 0.06-0.03 0.01-0.2 0.06-0.24 0.08-0.04 0.01-0.4 0.12-0.05 0.02-0.41 0.12-0.05 0.01-0.41 0.12-0.05 0.01-0.41 0.11-0.05 0.02-0.41 0.11-0.05 0.01-0.41 0.11-0.06 0.01-0.41 0.1-0.05 0.01-0.41 0.1-0.06 0.01-0.41 0.1-0.05 0.01-0.41 0.09-0.05 0.01-0.42 0.09-0.06 0.01-0.42 0.09-0.05 0.01-0.42 0.08-0.05 0.01-0.41 0.07-0.05 0.01-0.41 0.08-0.05 0.01-0.42 0.07-0.05 0.01-0.42 0.07-0.05 0.01-0.42 0.06-0.05 0.01-0.42 0.06-0.05 0.01-0.42 0.06-0.05 0.01-0.42 0.06-0.06 0.01-0.42 0.05-0.05 0.01-0.42 0.05-0.05 0.01-0.42 0.05-0.42 0.04h-0.05l-0.42 0.03-0.05 0.01-0.42 0.03h-0.05l-0.42 0.03h-0.05l-0.42 0.03-0.06 0.01-0.42 0.03h-0.05l-0.42 0.02h-0.05l-0.42 0.02h-0.06l-0.42 0.01h-0.05l-0.42 0.01h-0.05l-0.42 0.01h-1.48l-0.84-0.02h-0.06l-0.42-0.01h-9e-3l-0.42-0.02-0.05-0.01-0.42-0.02h-0.05l-0.42-0.02-0.05-0.01-0.42-0.02h-0.05l-0.42-0.03-0.05-0.01-0.42-0.04-0.06-0.01-0.42-0.04-0.06-0.01-0.42-0.04-0.05-0.01-0.42-0.04h-0.05l-0.42-0.04-0.05-0.01-0.42-0.05h-0.06l-0.42-0.05-0.06-0.01-0.42-0.06-0.05-0.01-0.42-0.06-0.05-0.01-0.42-0.06-0.05-0.01-0.42-0.06-0.05-0.01-0.41-0.07h-0.03l-0.42-0.08-0.054-0.01-0.41-0.08-0.05-0.01-0.41-0.08-0.05-0.01-0.41-0.08-0.06-0.01-0.416-0.08-0.05-0.01-0.41-0.09-0.06-0.02-0.41-0.09-0.05-0.01-0.41-0.1-0.056-0.02-0.41-0.1-0.05-0.02-0.41-0.11-0.05-0.01-0.41-0.11-0.05-0.02-0.41-0.11-0.05-0.02-0.41-0.11-0.05-0.02-0.41-0.12-0.06-0.02-0.41-0.12-0.05-0.02-0.41-0.12-0.05-0.02-0.41-0.12-0.05-0.01-0.398-0.13-0.04-0.01-0.21-0.07h-0.027l-0.2-0.06-0.03-0.01-0.2-0.07-0.03-0.01-0.2-0.07-0.03-0.01-0.2-0.07-0.03-0.01-0.2-0.07-0.03-0.01-0.2-0.07-0.02-0.01-0.2-0.07-0.02-0.01-0.2-0.07-0.02-0.01-0.2-0.08-0.03-0.01-0.2-0.08-0.03-0.01-0.2-0.08-0.02-0.01-0.2-0.08-0.03-0.01-0.2-0.08-0.02-0.01-0.2-0.08-0.03-0.01-0.2-0.08-0.02-0.01-0.2-0.08-0.02-0.01-0.2-0.08-0.03-0.01-0.2-0.08-0.03-0.01-0.2-0.08-0.03-0.01-0.2-0.08-0.03-0.01-0.2-0.08-0.02-0.01-0.2-0.09-0.03-0.01-0.19-0.09-0.02-0.01-0.2-0.09-0.02-0.01-0.2-0.09-0.02-0.01-0.2-0.08-0.03-0.01-0.19-0.09-0.03-0.01-0.2-0.09-0.03-0.01-0.19-0.09-0.02-0.02-0.19-0.09-0.02-0.01-0.19-0.09-0.02-0.01-0.2-0.09-0.02-0.02-0.2-0.1-0.02-0.02-0.19-0.09-0.03-0.01-0.2-0.09-0.02-0.02-0.19-0.1-0.03-0.01-0.22-0.11-0.19-0.1-0.03-0.01-0.19-0.1-0.02-0.01-0.19-0.1-0.03-0.02-0.19-0.1-0.02-0.01-0.19-0.1-0.02-0.01-0.19-0.1-0.03-0.02-0.19-0.1-0.02-0.01-0.19-0.11-0.03-0.02-0.19-0.1-0.03-0.01-0.19-0.1-0.03-0.01-0.19-0.1-0.03-0.01-0.19-0.11-0.03-0.01-0.18-0.11-0.03-0.01-0.18-0.11-0.01-0.01-104.8-61.17-0.01-0.01-0.22-0.13-0.02-0.01-0.22-0.13-0.03-0.01-0.23-0.13-0.03-0.01-0.22-0.14-0.02-0.01-0.22-0.14-0.02-0.02-0.22-0.14-0.02-0.02-0.22-0.14-0.03-0.01-0.22-0.13-0.03-0.02-0.22-0.14-0.02-0.02-0.22-0.14h0.051l-0.22-0.14-0.03-0.02-0.22-0.14-0.02-0.02-0.22-0.14-0.028-0.02-0.22-0.15-0.03-0.02-0.22-0.15-0.02-0.02-0.22-0.14-0.02-0.02-0.22-0.15-0.02-0.02-0.22-0.15-0.02-0.02-0.21-0.15-0.03-0.02-0.215-0.15-0.02-0.02-0.21-0.15-0.025-0.02-0.21-0.15-0.027-0.02-0.21-0.15-0.02-0.01-0.21-0.15-0.02-0.02-0.207-0.15-0.02-0.02-0.206-0.15-0.03-0.01-0.21-0.15-0.02-0.02-0.21-0.16-0.02-0.02-0.21-0.15-0.026-0.02-0.21-0.16-0.026-0.02-0.2-0.16-0.02-0.02-0.2-0.16-0.02-0.01-0.2-0.16-0.02-0.02-0.2-0.16-0.02-0.02-0.2-0.16-0.02-0.02-0.2-0.16-0.02-0.02-0.2-0.16-0.02-0.02-0.2-0.16-0.02-0.02-0.2-0.17-0.02-0.01-0.2-0.16-0.02-0.02-0.194-0.16-0.02-0.02-0.2-0.17-0.02-0.02-0.2-0.16-0.02-0.02-0.2-0.17-0.02-0.01-0.196-0.16-0.02-0.02-0.19-0.16-0.02-0.02-0.19-0.17-0.02-0.02-0.19-0.17-0.02-0.02-0.19-0.17-0.02-0.02-0.19-0.17-0.02-0.02-0.19-0.17-0.02-0.02-0.19-0.18-0.02-0.01-0.19-0.17-0.03-0.02-0.185-0.18-0.02-0.02-0.19-0.17-0.02-0.02-0.186-0.18-0.42-0.42-0.19-0.18-0.02-0.02-0.19-0.18-0.02-0.01-1.2-1.2-0.17-0.18-0.22-0.22-0.18-0.19-0.02-0.02-0.17-0.19-0.02-0.02-0.17-0.19-0.02-0.02-0.18-0.19-0.02-0.02-0.17-0.19-0.02-0.02-0.17-0.19-0.02-0.02-0.17-0.19-0.02-0.02-0.17-0.19-0.02-0.02-0.17-0.19-0.01-0.02-0.16-0.19-0.02-0.02-0.17-0.19-0.02-0.02-0.18-0.2-0.02-0.02-0.17-0.19-0.02-0.02-0.17-0.2-0.02-0.02-0.16-0.19-0.01-0.02-0.16-0.19-0.02-0.02-0.16-0.2-0.02-0.02-0.17-0.2-0.02-0.02-0.16-0.19-0.02-0.02-0.17-0.19-0.02-0.02-0.16-0.19-0.02-0.02-0.16-0.2-0.02-0.02-0.16-0.2-0.02-0.02-0.16-0.2-0.02-0.02-0.16-0.2-0.02-0.02-0.16-0.2-0.01-0.02-0.15-0.2-0.02-0.02-0.15-0.2-0.01-0.02-0.15-0.2-0.02-0.02-0.15-0.21-0.02-0.02-0.15-0.2-0.02-0.02-0.15-0.2-0.01-0.02-0.15-0.21-0.01-0.02-0.15-0.21-0.01-0.02-0.15-0.2-0.01-0.02-0.15-0.2-0.02-0.02-0.15-0.21-0.02-0.02-0.15-0.21-0.16-0.24-0.02-0.02-0.14-0.21-0.02-0.02-0.14-0.21-0.02-0.02-0.14-0.21-0.01-0.02-0.3-0.45-0.02-0.02-0.14-0.21-0.02-0.02-0.14-0.21-0.02-0.02-0.14-0.21-0.02-0.02-0.13-0.21-0.01-0.02-0.13-0.21-0.32-0.48-0.01-0.02-0.14-0.22-0.01-0.03-0.13-0.21-0.02-0.02-0.13-0.21-0.02-0.02-0.13-0.22-0.02-0.03-0.13-0.21-0.01-0.02-0.13-0.22-0.01-0.02-0.13-0.21-0.02-0.03-0.13-0.22-0.02-0.03-0.13-0.22-0.02-0.03-0.12-0.22-0.02-0.02-0.13-0.22-0.01-0.02-0.12-0.22-0.01-0.02-0.12-0.22-0.01-0.03-0.12-0.22-0.02-0.03-0.12-0.22-0.01-0.03-0.12-0.23-0.01-0.02-0.12-0.22-0.01-0.03-0.12-0.22-0.01-0.03-0.12-0.22-0.01-0.03-0.11-0.23-0.01-0.02-0.12-0.23-0.01-0.03-0.12-0.23-0.02-0.02-0.11-0.23-0.12-0.24-0.01-0.03-0.11-0.23v0.01l-0.11-0.23-0.02-0.03-0.11-0.23-0.01-0.03-0.11-0.22-0.01-0.03-0.11-0.23-0.01-0.02-0.11-0.23-0.01-0.02-0.1-0.23-0.01-0.02-0.11-0.23-0.01-0.02-0.11-0.23-0.01-0.02-0.11-0.23-0.01-0.03-0.1-0.23-0.01-0.02-0.11-0.23-0.01-0.03-0.11-0.23-0.01-0.02-0.1-0.23-0.01-0.02-0.1-0.23-0.01-0.03-0.1-0.23-0.01-0.02-0.09-0.23-0.01-0.02-0.1-0.23-0.01-0.03-0.09-0.24-0.01-0.02-0.1-0.23-0.01-0.03-0.09-0.22-0.01-0.03-0.1-0.24-0.01-0.02-0.09-0.24-0.01-0.03-0.09-0.24-0.01-0.02-0.09-0.24-0.01-0.03-0.09-0.24-0.01-0.02-0.09-0.24-0.01-0.02-0.09-0.27-0.09-0.24-0.01-0.02-0.18-0.54-0.09-0.24-0.09-0.27-0.01-0.02-0.08-0.24-0.01-0.02-0.44-1.32-9e-3 -0.029-0.07-0.24-0.01-0.02-0.08-0.25-0.01-0.03-0.07-0.25-0.01-0.03-0.07-0.24-0.01-0.03-0.07-0.24-0.01-0.03-0.07-0.25-0.01-0.03-0.07-0.25-0.01-0.02-0.07-0.25-0.01-0.01-0.07-0.25-0.01-0.02-0.06-0.24-0.01-0.02-0.06-0.24v-0.02l-0.07-0.25v-0.03l-0.06-0.24-0.01-0.03-0.06-0.24-0.01-0.03-0.06-0.25h0.01l-0.06-0.25-0.01-0.02-0.06-0.25-0.01-0.02-0.06-0.25-0.01-0.02-0.06-0.25 0.01-0.01-0.06-0.25-0.01-0.03-0.06-0.25-0.01-0.03-0.05-0.25-0.01-0.03-0.06-0.25-0.01-0.02-0.05-0.25-0.01-0.03-0.05-0.25-0.01-0.03-0.1-0.5v-0.03l-0.05-0.26v-0.03l-0.05-0.25-0.01-0.03-0.06-0.24v-0.03l-0.05-0.27-0.01-0.03-0.05-0.26-0.01-0.03-0.04-0.25-0.01-0.03-0.04-0.25v-0.03l-0.04-0.25v-0.03l-0.04-0.25-0.01-0.03-0.04-0.25v0.01l-0.04-0.25v-0.02l-0.04-0.25v-0.03l-0.04-0.25v-0.03l-0.04-0.25v-0.02l-0.03-0.26v-0.03l-0.03-0.25v-0.02l-0.04-0.26-0.01-0.03-0.03-0.25v-0.03l-0.03-0.26-0.01-0.03-0.03-0.26v-0.03l-0.03-0.26-0.01-0.03-0.03-0.26v-0.03l-0.03-0.26-0.01-0.02-0.03-0.26-0.02-0.26v-0.03l-0.03-0.26-0.01-0.03-0.03-0.26v-0.03l-0.02-0.26-0.01-0.03-0.02-0.26v-0.03l-0.02-0.26v-0.03l-0.04-0.52v-0.03l-0.02-0.26v-0.03l-0.02-0.26v-0.323l-0.01-0.26v-0.03l-0.01-0.26v-0.03l-0.01-0.26-0.01-0.03-0.01-0.26v-0.28l-0.01-0.26v-0.03l-0.01-0.26v-126.6l0.01-0.25v-0.32l0.01-0.26v-0.92l0.01-0.26v-0.02l0.01-0.26v-0.03l0.01-0.26v-0.03l0.01-0.26v-0.02l0.01-0.26v-0.03l0.01-0.26v-0.03l0.02-0.27v-0.03l0.02-0.26v-0.02l0.01-0.26v-0.03l0.02-0.26v-0.03l0.01-0.26v-0.03l0.01-0.26v-0.03l0.02-0.26v-0.03l0.02-0.26v-0.03l0.03-0.26v-0.03l0.02-0.26 0.01-0.02 0.02-0.26v-0.02l0.03-0.26v-0.02l0.03-0.26 0.01-0.03 0.03-0.26v-0.03l0.03-0.26v-0.02l0.03-0.26v-0.02l0.03-0.26 0.01-0.03 0.03-0.26v-0.03l0.03-0.25v-0.03l0.03-0.26v-0.03l0.03-0.26 0.01-0.03 0.03-0.25v-0.03l0.04-0.26v-0.03l0.03-0.26 0.01-0.03 0.03-0.25 0.01-0.03 0.04-0.26 0.01-0.02 0.04-0.26v-0.02l0.04-0.26v-0.02l0.04-0.25 0.01-0.03 0.04-0.25v-0.03l0.07-0.26 0.01-0.03 0.04-0.25v-0.03l0.05-0.25v-0.02l0.05-0.25v-0.02l0.05-0.26 0.01-0.02 0.05-0.25 0.01-0.02 0.05-0.25 0.01-0.03 0.05-0.25 0.01-0.03 0.05-0.25v-0.03l0.05-0.25v-0.02l0.05-0.25 0.01-0.02 0.05-0.25 0.01-0.02 0.06-0.25v-0.03l0.06-0.25 0.01-0.03 0.05-0.25 0.01-0.03 0.06-0.25v-0.03l0.06-0.25 0.01-0.03 0.06-0.25v-0.03l0.06-0.25 0.01-0.02 0.06-0.25v-0.02l0.06-0.25 0.01-0.03 0.07-0.25v-0.02l0.07-0.25v-0.02l0.07-0.25 0.01-0.03 0.07-0.25v-0.03l0.07-0.25 0.01-0.03 0.07-0.24 0.01-0.02 0.07-0.25 0.01-0.025 0.07-0.25 0.01-0.03 0.07-0.244 0.01-0.02 0.08-0.25 0.01-0.02 0.07-0.24 0.01-0.02 0.07-0.243 0.01-0.02 0.07-0.248 0.01-0.03 0.08-0.244 0.09-0.27v-0.02l0.08-0.24v-0.03l0.08-0.24 0.01-0.02 0.35-1.05 0.01-0.02 0.09-0.24 0.01-0.02 0.08-0.24 0.01-0.025 0.08-0.24 0.01-0.02 0.09-0.24 0.01-0.02 0.09-0.24v-0.02l0.09-0.24 0.01-0.02 0.09-0.24 0.01-0.03 0.09-0.24 0.01-0.02 0.09-0.24 0.01-0.03 0.1-0.23 0.01-0.02 0.1-0.24 0.01-0.02 0.1-0.24 0.01-0.03 0.1-0.24 0.01-0.03 0.1-0.24 0.01-0.03 0.1-0.24 0.01-0.03 0.1-0.24 0.01-0.03 0.1-0.24 0.01-0.025 0.1-0.23 0.01-0.03 0.1-0.23 0.01-0.03 0.1-0.24 0.01-0.02 0.11-0.24 0.01-0.02 0.11-0.23 0.01-0.02 0.1-0.23 0.01-0.03 0.11-0.23 0.01-0.02 0.11-0.23 0.01-0.02 0.11-0.23 0.01-0.02 0.11-0.23 0.01-0.03 0.11-0.23 0.01-0.02 0.11-0.23 0.01-0.03 0.11-0.23 0.01-0.02 0.11-0.23 0.01-0.02 0.11-0.23 0.01-0.02 0.11-0.23 0.01-0.02 0.12-0.22 0.01-0.02 0.12-0.23 0.02-0.03 0.12-0.23 0.01-0.02 0.12-0.23 0.01-0.03 0.12-0.22 0.01-0.02 0.12-0.22 0.01-0.02 0.12-0.22 0.01-0.03 0.12-0.22 0.02-0.02 0.12-0.22 0.01-0.03 0.12-0.22 0.02-0.02 0.12-0.22 0.01-0.02 0.12-0.22 0.02-0.03 0.13-0.22 0.01-0.02 0.12-0.22 0.01-0.02 0.13-0.22 0.01-0.02 0.13-0.22 0.01-0.02 0.13-0.22 0.02-0.02 0.13-0.22 0.01-0.02 0.13-0.22 0.02-0.02 0.13-0.22 0.01-0.02 0.13-0.22 0.02-0.02 0.13-0.22 0.01-0.02 0.14-0.22 0.02-0.03 0.14-0.22 0.01-0.02 0.13-0.21 0.02-0.02 0.14-0.21 0.02-0.02 0.13-0.22 0.01-0.02 0.14-0.21 0.01-0.02 0.14-0.21 0.02-0.02 0.14-0.22 0.02-0.02 0.14-0.21 0.01-0.03 0.14-0.21 0.01-0.02 0.14-0.21 0.01-0.02 0.15-0.21 0.02-0.02 0.14-0.21 0.02-0.02 0.15-0.21 0.01-0.02 0.15-0.21 0.01-0.02 0.15-0.21 0.01-0.02 0.15-0.21 0.02-0.02 0.15-0.21 0.01-0.02 0.15-0.21 0.02-0.02 0.15-0.2 0.01-0.02 0.15-0.21 0.02-0.02 0.15-0.2 0.02-0.02 0.15-0.2 0.02-0.02 0.15-0.2 0.02-0.02 0.15-0.2 0.01-0.02 0.15-0.2 0.02-0.02 0.16-0.2 0.02-0.02 0.16-0.2 0.02-0.02 0.16-0.2 0.02-0.02 0.16-0.2 0.02-0.02 0.16-0.2 0.02-0.03 0.16-0.2 0.01-0.02 0.16-0.2 0.02-0.02 0.16-0.2 0.02-0.02 0.16-0.19 0.02-0.02 0.16-0.2 0.02-0.02 0.16-0.2 0.02-0.02 0.17-0.19 0.02-0.02 0.16-0.2 0.02-0.02 0.16-0.19 0.02-0.02 0.16-0.2 0.02-0.02 0.17-0.2 0.01-0.02 0.17-0.19 0.02-0.02 0.17-0.19 0.02-0.02 0.17-0.19 0.02-0.02 0.17-0.19 0.01-0.02 0.17-0.19 0.02-0.02 0.17-0.19 0.02-0.02 0.17-0.19 0.01-0.02 0.17-0.19 0.02-0.02 0.18-0.19 0.01-0.02 0.18-0.19 0.02-0.02 0.19-0.18 0.02-0.02 0.18-0.19 0.02-0.02 0.18-0.19 0.62-0.62 0.19-0.18 1.42-1.42 0.19-0.17 0.02-0.02 0.19-0.17 0.02-0.02 0.19-0.18 0.02-0.02 0.19-0.18 0.02-0.01 0.19-0.17 0.02-0.01 0.19-0.17 0.02-0.02 0.19-0.17 0.02-0.02 0.19-0.17 0.02-0.02 0.19-0.17 0.02-0.01 0.2-0.17 0.02-0.02 0.2-0.17 0.02-0.02 0.2-0.17 0.02-0.02 0.2-0.16 0.02-0.02 0.2-0.16 0.02-0.02 0.19-0.16 0.02-0.02 0.2-0.16 0.02-0.02 0.2-0.16 0.02-0.01 0.2-0.16 0.02-0.02 0.2-0.16 0.02-0.02 0.2-0.16 0.02-0.02 0.21-0.16 0.02-0.02 0.2-0.16 0.02-0.02 0.21-0.16 0.02-0.02 0.21-0.16 0.02-0.02 0.2-0.16 0.02-0.01 0.21-0.16 0.02-0.02 0.2-0.16 0.02-0.02 0.21-0.15 0.02-0.02 0.21-0.16 0.02-0.02 0.21-0.15 0.02-0.01 0.21-0.15 0.03-0.02 0.21-0.15 0.02-0.01 0.21-0.15 0.02-0.02 0.21-0.16 0.02-0.01 0.22-0.15 0.02-0.02 0.21-0.15 0.03-0.01 0.21-0.15 0.02-0.01 0.21-0.15 0.02-0.01 0.22-0.15 0.02-0.02 0.21-0.15 0.02-0.01 0.22-0.14 0.02-0.01 0.21-0.15 0.03-0.02 0.22-0.14 0.02-0.02 0.22-0.15 0.02-0.02 0.22-0.14 0.03-0.01 0.22-0.14 0.02-0.02 0.22-0.14 0.02-0.01 0.22-0.14 0.02-0.01 0.22-0.14 0.02-0.01 0.22-0.14 0.03-0.01 0.22-0.13h0.01l100.51-62 0.01-0.01 0.21-0.13 0.02-0.01 0.22-0.14 0.03-0.02 0.22-0.13 0.03-0.02 0.22-0.13 0.03-0.02 0.22-0.13 0.03-0.01 0.23-0.13 0.02-0.02 0.22-0.13 0.03-0.01 0.22-0.13 0.02-0.01 0.23-0.12 0.02-0.02 0.23-0.12 0.02-0.02 0.22-0.12 0.03-0.01 0.23-0.12 0.02-0.02 0.22-0.12 0.03-0.02 0.22-0.12 0.03-0.02 0.22-0.12 0.02-0.02 0.23-0.12 0.02-0.01 0.22-0.12 0.03-0.01 0.22-0.12 0.03-0.01 0.23-0.12 0.03-0.01 0.23-0.12 0.02-0.01 0.23-0.11 0.03-0.01 0.23-0.11 0.03-0.01 0.22-0.11 0.03-0.01 0.23-0.11 0.02-0.01 0.23-0.11 0.03-0.01 0.23-0.11 0.03-0.02 0.23-0.11 0.03-0.01 0.23-0.11 0.03-0.01 0.23-0.1 0.03-0.01 0.23-0.1 0.02-0.02 0.23-0.1 0.02-0.01 0.23-0.1 0.03-0.02 0.23-0.1 0.03-0.01 0.23-0.1 0.03-0.01 0.23-0.1 0.03-0.01 0.23-0.1 0.03-0.01 0.23-0.1 0.03-0.01 0.23-0.09 0.03-0.01 0.23-0.1 0.03-0.01 0.24-0.1 0.03-0.01 0.24-0.1 0.03-0.02 0.23-0.09 0.02-0.01 0.24-0.09 0.03-0.01 0.23-0.09 0.02-0.01 0.24-0.09 0.3-0.1 0.24-0.09 0.03-0.01 0.24-0.09 0.57-0.19 0.23-0.08 0.3-0.1 0.23-0.08 0.27-0.09 0.02-0.01 0.81-0.27 0.24-0.07 0.02-0.01 0.24-0.07 0.03-0.01 0.24-0.07h0.03l0.24-0.07 0.03-0.01 0.24-0.07 0.02-0.01 0.24-0.07 0.02-0.01 0.24-0.07 0.03-0.01 0.24-0.07 0.03-0.01 0.24-0.07 0.03-0.01 0.24-0.06 0.03-0.01 0.24-0.06 0.02-0.01 0.24-0.07 0.024-0.01 0.25-0.06h0.02l0.24-0.07h0.03l0.247-0.06 0.03-0.01 0.25-0.06 0.03-0.01 0.24-0.06h0.03l0.25-0.06h0.03l0.24-0.06 0.03-0.01 0.24-0.05 0.03-0.01 0.24-0.06 0.03-0.01 0.24-0.05h0.03l0.24-0.05 0.03-0.01 0.24-0.05h0.02l0.24-0.05 0.03-0.01 0.25-0.05h0.02l0.25-0.05 0.02-0.01 0.25-0.05 0.03-0.01 0.25-0.05 0.03-0.01 0.25-0.04h0.03l0.24-0.04 0.03-0.01 0.25-0.05 0.03-0.01 0.25-0.04h0.03l0.24-0.04 0.03-0.01 0.25-0.04 0.03-0.01 0.24-0.04h0.02l0.24-0.04h0.03l0.25-0.04 0.03-0.01 0.25-0.04h0.03l0.25-0.04h0.03l0.25-0.04h0.03l0.25-0.03h0.03l0.24-0.03h0.03l0.25-0.03 0.03-0.01 0.25-0.03 0.02-0.01 0.25-0.02h0.03l0.24-0.03h0.03l0.24-0.03h0.03l0.25-0.03h0.03l0.25-0.03h0.03l0.24-0.02h0.03l0.25-0.03 0.03-0.01 0.25-0.02 0.03-0.01 0.25-0.02h0.03l0.246-0.02h0.03l0.25-0.02h0.03l0.25-0.01 0.03-0.01 0.25-0.02 0.02-0.01 0.25-0.01h0.03l0.25-0.02h0.02l0.25-0.01h0.03l0.25-0.01h0.03l0.25-0.01h0.03l0.25-0.01 0.03-0.01 0.25-0.01h0.03l0.25-0.01h0.03l0.25-0.01h0.03l0.25-0.01h0.03l0.25-0.01h0.02l0.25-0.01h0.31l0.25-0.01h0.58zm-0.23 27h-0.164l-0.164 2e-3h-0.163l-0.34 8e-3 -0.17 5e-3 -0.51 0.03-0.16 0.01-0.17 0.01-0.48 0.03-0.17 0.01-0.16 0.01-0.34 0.04-0.16 0.02-0.51 0.06-0.16 0.02-0.17 0.02-0.32 0.04-0.17 0.02-0.64 0.08-0.17 0.02-0.16 0.03-0.16 0.02-0.17 0.03-0.96 0.18-0.16 0.02-0.17 0.03-0.16 0.03-0.17 0.03-0.48 0.09-0.48 0.12-0.32 0.06-1.6 0.4-0.16 0.05-0.16 0.04-0.16 0.05-0.15 0.05-0.8 0.25-0.15 0.05-0.16 0.05-0.16 0.06-0.32 0.1-0.16 0.06-0.32 0.1-0.15 0.05-0.48 0.18-0.15 0.06-0.16 0.06-0.3 0.12-0.16 0.07-0.48 0.18-0.15 0.07-0.15 0.06-0.16 0.07-0.45 0.21-0.16 0.07-0.15 0.07-0.16 0.07-0.45 0.21-0.16 0.07-0.3 0.14-0.3 0.16-0.15 0.07-0.15 0.08-0.15 0.07-0.75 0.4-0.15 0.09-0.14 0.08-0.15 0.08-0.14 0.08-0.45 0.27-0.14 0.08-0.15 0.09-0.14 0.09-0.3 0.18-0.16 0.1-100.4 61.88-0.17 0.11-0.16 0.1-1.5 1-0.15 0.11-0.28 0.2-0.15 0.1-0.84 0.6-0.14 0.11-0.14 0.1-0.84 0.66-0.13 0.11-0.28 0.22-0.13 0.11-0.28 0.22-0.13 0.11-0.14 0.11-0.26 0.22-0.26 0.24-0.26 0.22-1.43 1.32-0.12 0.12-0.13 0.12-0.12 0.13-0.13 0.12-0.12 0.13-0.12 0.12-0.12 0.13-0.12 0.12-0.24 0.26-0.25 0.25-0.36 0.39-0.11 0.13-0.36 0.39-0.12 0.14-0.12 0.13-0.22 0.26-0.12 0.14-0.11 0.13-0.12 0.13-0.11 0.14-0.11 0.13-0.66 0.84-0.1 0.14-0.44 0.56-0.3 0.42-0.1 0.15-0.2 0.28-0.1 0.15-0.4 0.56-0.09 0.15-0.1 0.15-0.1 0.14-0.1 0.15-0.09 0.15-0.09 0.14-0.36 0.6-0.2 0.3-0.9 1.5-0.09 0.16-0.18 0.3-0.09 0.16-0.08 0.15-0.24 0.48-0.16 0.3-0.08 0.16-0.08 0.15-0.08 0.16-0.07 0.15-0.4 0.8-0.63 1.44-0.06 0.16-0.07 0.16-0.07 0.17-0.21 0.48-0.06 0.16-0.07 0.17-0.07 0.16-0.06 0.16-0.06 0.17-0.06 0.16-0.06 0.17-0.06 0.16-0.18 0.51-0.05 0.17-0.06 0.16-0.06 0.17-0.05 0.17-0.05 0.16-0.05 0.17-0.06 0.17-0.1 0.32-0.05 0.17-0.06 0.17-0.05 0.17-0.05 0.16-0.25 0.85-0.08 0.34-0.05 0.17-0.04 0.17-0.05 0.17-0.08 0.34-0.04 0.18-0.24 1.02-0.03 0.17-0.04 0.17-0.03 0.17-0.12 0.72-0.06 0.34-0.06 0.36-0.09 0.51-0.03 0.18-0.04 0.36-0.02 0.17-0.03 0.18-0.03 0.17-0.12 1.08-0.02 0.17-0.04 0.36-0.01 0.18-0.04 0.36-0.1 1.8v0.18l-0.02 0.36v0.18l-0.01 0.18v126.8l0.01 0.18v0.54l0.01 0.17 0.08 1.44 0.02 0.18 0.03 0.54 0.02 0.17 0.02 0.18 0.02 0.17 0.01 0.18 0.08 0.68 0.02 0.18 0.04 0.34 0.04 0.36 0.02 0.17 0.02 0.18 0.12 0.68 0.03 0.18 0.12 0.68 0.04 0.17 0.09 0.51 0.08 0.34 0.03 0.17 0.28 1.19 0.04 0.16 0.05 0.16 0.12 0.51 0.05 0.17 0.04 0.16 0.04 0.17 0.04 0.16 0.05 0.17 0.04 0.16 0.1 0.34 0.05 0.16 0.1 0.34 0.05 0.16 0.05 0.17 0.24 0.64 0.05 0.16 0.06 0.17 0.54 1.44 0.14 0.32 0.3 0.8 0.77 1.76 0.07 0.15 0.08 0.16 0.08 0.15 0.08 0.16 0.48 0.9 0.09 0.15 0.24 0.45 0.18 0.3 0.24 0.45 0.09 0.15 0.08 0.15 0.09 0.14 0.09 0.15 0.09 0.14 0.18 0.3 0.36 0.56 0.18 0.3 0.1 0.14 0.09 0.14 0.09 0.15 0.18 0.28 0.2 0.28 0.1 0.15 0.7 0.98 0.22 0.28 0.4 0.56 0.22 0.26 0.11 0.14 0.11 0.13 0.11 0.14 1.21 1.43 0.24 0.26 0.11 0.13 0.12 0.12 0.12 0.13 0.12 0.12 0.12 0.13 0.11 0.13 0.12 0.13 0.48 0.48 0.12 0.13 0.6 0.6 0.13 0.12 0.24 0.24 0.13 0.12 0.24 0.24 0.13 0.12 0.26 0.22 0.26 0.24 0.26 0.22 0.26 0.24 0.13 0.11 0.42 0.33 0.26 0.22 0.14 0.11 0.13 0.11 0.14 0.1 0.13 0.11 0.42 0.33 0.13 0.1 0.14 0.11 0.14 0.1 0.28 0.22 0.28 0.2 0.15 0.1 0.84 0.6 0.15 0.1 0.15 0.09 0.15 0.1 0.14 0.1 0.3 0.2 0.14 0.09 0.75 0.45 0.16 0.09 0.3 0.18 0.17 0.1 104.68 61.2 0.13 0.08 0.11 0.06 0.36 0.18 0.11 0.07 0.36 0.18 0.12 0.07 0.96 0.48 0.11 0.06 0.24 0.12 0.12 0.05 0.12 0.06 0.36 0.15 0.24 0.12 0.12 0.05 0.12 0.06 1.08 0.45 0.12 0.04 0.13 0.05 0.48 0.2 0.12 0.04 0.12 0.05 0.24 0.08 0.13 0.04 0.12 0.04 0.11 0.04 0.26 0.08 0.25 0.08 1.75 0.49 0.75 0.18 0.25 0.05 0.25 0.06 0.75 0.15 0.25 0.04 0.25 0.05 0.5 0.08 0.26 0.04 0.25 0.04 0.78 0.09 0.26 0.02 0.25 0.02 0.26 0.02 0.25 0.02 0.52 0.04 0.25 0.02 0.5 0.02 0.26 0.01h1.28l0.26-0.01h0.26l0.52-0.02 0.52-0.04 0.26-0.01 0.78-0.06 0.25-0.02 0.52-0.06 0.25-0.03 0.26-0.03 0.25-0.04 0.26-0.04 0.25-0.04 0.26-0.04 0.25-0.04 0.25-0.05 0.25-0.04 0.26-0.05 0.25-0.05 0.25-0.06 0.25-0.05 1-0.24 1-0.28 0.26-0.08 0.36-0.12 0.13-0.04 0.12-0.04 0.13-0.04 0.24-0.08 0.13-0.04 0.24-0.08 0.13-0.05 0.12-0.04 0.13-0.04 0.12-0.05 0.36-0.12 0.13-0.05 0.12-0.04 1.2-0.5 0.24-0.12 0.12-0.05 0.24-0.12 0.12-0.05 0.36-0.18 0.11-0.06 0.96-0.48 0.11-0.06 0.24-0.12 0.13-0.07 115.97-64.63 0.14-0.07 0.13-0.07 0.36-0.21 0.12-0.08 0.13-0.07 0.36-0.21 0.24-0.16 0.36-0.21 0.24-0.16 0.12-0.07 0.12-0.08 0.12-0.07 0.55-0.4 0.12-0.08 0.11-0.08 0.12-0.08 0.55-0.4 0.12-0.08 0.11-0.09 0.11-0.08 0.11-0.09 0.11-0.08 0.33-0.27 0.22-0.16 0.11-0.09 0.1-0.09 0.22-0.18 0.1-0.08 0.11-0.09 0.11-0.1 0.1-0.09 0.11-0.09 0.2-0.18 0.1-0.1 0.11-0.09 0.1-0.1 0.1-0.09 0.2-0.2 0.1-0.09 0.1-0.1 0.1-0.09 0.4-0.4 0.09-0.1 0.1-0.1 0.09-0.1 0.3-0.3 0.36-0.4 0.1-0.1 0.63-0.7 0.27-0.33 0.27-0.3 0.09-0.11 0.09-0.1 0.09-0.11 0.08-0.1 0.16-0.22 0.08-0.1 0.09-0.11 0.96-1.32 0.07-0.11 0.07-0.12 0.08-0.12 0.08-0.11 0.14-0.22 0.08-0.12 0.08-0.11 0.07-0.11 0.28-0.48 0.07-0.11 0.14-0.24 0.07-0.11 0.21-0.36 0.12-0.24 0.14-0.24 0.06-0.12 0.14-0.24 0.12-0.24 0.06-0.13 0.06-0.12 0.14-0.24 0.18-0.36 0.06-0.13 0.12-0.24 0.06-0.13 0.12-0.24 0.18-0.39 0.06-0.12 0.05-0.12 0.15-0.39 0.05-0.12 0.15-0.39 0.05-0.12 0.25-0.65 0.16-0.52 0.2-0.52 0.04-0.13 0.05-0.13 0.08-0.26 0.05-0.13 0.16-0.52 0.03-0.13 0.16-0.52 0.03-0.13 0.03-0.14 0.04-0.13 0.03-0.13 0.03-0.14 0.04-0.13 0.09-0.39 0.03-0.14 0.06-0.26 0.02-0.14 0.03-0.14 0.03-0.13 0.02-0.14 0.03-0.13 0.06-0.28 0.03-0.13 0.03-0.14 0.02-0.14 0.03-0.14 0.02-0.13 0.03-0.13 0.14-0.98 0.01-0.14 0.02-0.13 0.01-0.14 0.02-0.14 0.02-0.13 0.02-0.14 0.04-0.56 0.02-0.14 0.11-1.54v-0.28l0.01-0.14v-138.43l-0.01-0.123-0.01-0.13v-0.13l-0.01-0.13v-0.13l-0.01-0.13v-0.13l-0.01-0.13-0.01-0.12-0.03-0.39-0.01-0.12-0.01-0.13-0.01-0.12-0.01-0.13-0.02-0.13-0.02-0.24-0.02-0.12-0.01-0.12-0.02-0.13-0.01-0.12-0.02-0.12-0.02-0.13-0.01-0.13-0.01-0.12-0.02-0.11-0.04-0.263-0.03-0.255-0.04-0.26-0.04-0.25-0.1-0.5-0.04-0.25-0.05-0.25-0.42-1.75-0.21-0.75-0.08-0.25-0.07-0.24-0.32-0.96-0.18-0.48-0.09-0.23-0.27-0.72-0.1-0.23-0.09-0.24-0.3-0.69-0.11-0.23-0.1-0.23-0.22-0.46-0.11-0.22-0.12-0.23-0.11-0.23-0.12-0.23-0.6-1.1-0.39-0.66-0.14-0.22-0.26-0.42-0.84-1.26-0.75-1-0.64-0.8-0.16-0.19-0.17-0.19-0.16-0.19-0.85-0.95-0.9-0.9-0.38-0.36-0.95-0.85-0.2-0.17-0.4-0.32-0.19-0.16-0.21-0.17-0.09-0.07-0.4-0.32-0.1-0.07-0.2-0.16-0.22-0.16-0.3-0.24-0.1-0.07-0.1-0.08-0.11-0.08-0.2-0.14-0.11-0.08-0.22-0.14-0.1-0.07-0.99-0.63-0.22-0.12-0.13-0.07-113.16-66.389-0.16-0.098-0.145-0.08-0.3-0.18-0.147-0.083-0.15-0.08-0.145-0.08-0.45-0.24-0.147-0.08-0.9-0.48-0.153-0.07-0.15-0.08-0.3-0.14-0.15-0.08-0.155-0.07-0.3-0.14-0.156-0.07-0.15-0.07-0.15-0.06-0.155-0.07-0.152-0.07-0.15-0.07-0.155-0.06-0.15-0.06-0.16-0.06-0.154-0.07-0.158-0.06-0.16-0.07-0.16-0.06-0.31-0.12-0.157-0.06-0.32-0.12-0.15-0.06-0.3-0.1-0.16-0.06-0.16-0.05-0.15-0.05-0.32-0.1-0.15-0.05-0.48-0.15-0.15-0.05-0.48-0.15-0.16-0.04-0.16-0.05-0.16-0.04-0.16-0.05-0.48-0.12-0.16-0.05-0.32-0.08-0.16-0.03-0.48-0.12-0.16-0.03-0.16-0.04-0.32-0.06-0.16-0.04-0.96-0.18-0.17-0.03-0.64-0.08-0.32-0.06-0.16-0.02-0.17-0.03-0.16-0.02-0.16-0.03-0.8-0.1-0.17-0.02-0.16-0.01-0.32-0.04-0.8-0.05-0.34-0.02-0.32-0.02h-0.16l-0.32-0.02h-0.17l-0.32-0.02-0.15-0.01-0.16-0.01h-0.33l-0.16-0.01h-0.32z" fill="#c9177e"/>
 <path d="m93.11 296.24v-207.22h43.354v75.48h71.916v-75.48h43.48v207.22h-43.48v-90.606h-71.916v90.606z" fill="#fff" fill-rule="nonzero"/>
</svg>
