<?xml version="1.0" encoding="UTF-8"?>
<!-- Created with Inkscape (http://www.inkscape.org/) -->
<svg width="2e3" height="2008.3" version="1.1" xmlns="http://www.w3.org/2000/svg" xmlns:cc="http://creativecommons.org/ns#" xmlns:dc="http://purl.org/dc/elements/1.1/" xmlns:rdf="http://www.w3.org/1999/02/22-rdf-syntax-ns#" xmlns:xlink="http://www.w3.org/1999/xlink">
 <metadata>
  <rdf:RDF>
   <cc:Work rdf:about="">
    <dc:format>image/svg+xml</dc:format>
    <dc:type rdf:resource="http://purl.org/dc/dcmitype/StillImage"/>
    <dc:title/>
   </cc:Work>
  </rdf:RDF>
 </metadata>
 <g transform="matrix(15.623 0 0 15.623 -3987.6 -6644.9)">
  <rect x="255.24" y="425.33" width="128.02" height="128.55" ry="20.68" fill="#563d7c"/>
  <g transform="scale(1.0052 .99483)" fill="#fff">
   <path d="m318.56 483.17c3.2524 5e-5 5.7185-0.71477 7.3984-2.1445 1.6798-1.4296 2.5197-3.5383 2.5197-6.3262-5e-5 -2.752-0.83996-4.8428-2.5197-6.2726-1.6799-1.4653-4.146-2.198-7.3984-2.1981h-11.419v16.941h11.419m0.69695 35.008c4.1459 1e-5 7.2554-0.87564 9.3284-2.627 2.1087-1.7513 3.163-4.3961 3.1631-7.9345-6e-5 -3.4669-1.0366-6.0581-3.1095-7.7737-2.073-1.7513-5.2004-2.6269-9.382-2.627h-12.116v20.962h12.116m19.193-28.789c4.4318 1.2867 7.863 3.6635 10.293 7.1303 2.4303 3.4669 3.6455 7.7201 3.6456 12.76-7e-5 7.7201-2.6092 13.474-7.8273 17.263-5.2182 3.7886-13.153 5.6828-23.804 5.6828h-34.258v-80.042h30.987c11.115 8e-5 19.157 1.6799 24.125 5.0395 5.0037 3.3597 7.5055 8.7388 7.5056 16.137-8e-5 3.8958-0.91147 7.2198-2.7342 9.9718-1.8229 2.7164-4.4677 4.7357-7.9345 6.0581" fill="#fff"/>
  </g>
 </g>
</svg>
